<?xml version="1.0" standalone="no"?>
<!DOCTYPE svg PUBLIC "-//W3C//DTD SVG 20010904//EN"
 "http://www.w3.org/TR/2001/REC-SVG-20010904/DTD/svg10.dtd">
<svg version="1.0" xmlns="http://www.w3.org/2000/svg"
 width="500.000000pt" height="500.000000pt" viewBox="0 0 500.000000 500.000000"
 preserveAspectRatio="xMidYMid meet">

<g transform="translate(0.000000,500.000000) scale(0.100000,-0.100000)"
fill="#000000" stroke="none">
<path d="M1595 4663 c-16 -2 -54 -6 -84 -9 l-53 -6 33 -28 c19 -17 46 -29 62
-30 38 0 96 -26 103 -45 25 -63 -129 -192 -342 -288 -138 -62 -234 -87 -342
-88 -100 -1 -127 43 -72 119 22 31 30 53 30 84 -1 38 -2 41 -14 26 -7 -10 -17
-18 -22 -18 -16 0 -115 -101 -108 -111 3 -5 0 -8 -6 -7 -19 5 -60 -81 -60
-124 0 -21 5 -38 10 -38 6 0 10 -6 10 -14 0 -8 19 -24 43 -35 54 -26 189 -29
299 -6 314 65 657 271 735 443 28 60 25 98 -10 130 -35 32 -136 53 -212 45z
m153 -79 c12 -14 22 -34 22 -45 0 -85 -186 -262 -376 -357 -240 -120 -515
-149 -589 -60 -14 16 -25 38 -25 49 0 50 56 135 105 161 19 10 19 9 -1 -13
-68 -75 -83 -146 -37 -176 39 -26 163 -21 288 12 245 64 595 288 595 382 0 40
-36 64 -105 72 -48 5 -49 5 -15 11 52 9 112 -7 138 -36z"/>
<path d="M2725 4470 c-5 -16 -15 -20 -53 -20 -26 0 -67 -10 -92 -21 -89 -40
-127 -96 -139 -204 -12 -99 -45 -167 -129 -255 -82 -87 -100 -121 -115 -204
-9 -55 -8 -74 6 -118 19 -62 40 -94 54 -85 7 4 4 21 -9 47 -21 43 -28 156 -12
197 6 15 9 -3 9 -60 0 -98 16 -145 49 -143 13 0 23 6 23 13 0 7 -5 9 -11 5
-14 -8 22 49 39 63 6 6 13 15 14 20 2 6 7 9 12 8 4 -2 6 3 3 11 -7 18 61 70
77 60 8 -5 9 -3 4 6 -6 10 -3 12 13 8 12 -4 25 -2 28 3 8 13 68 11 84 -3 12
-11 12 -10 2 3 -9 12 -8 18 6 31 30 27 52 58 52 73 0 17 16 20 24 6 6 -9 101
8 125 23 14 9 53 -22 45 -36 -3 -4 -2 -8 3 -7 4 1 25 -5 45 -14 24 -11 64 -17
113 -17 65 0 75 -2 75 -17 0 -14 2 -15 9 -4 7 11 15 10 45 -4 42 -20 72 -58
60 -76 -5 -8 -3 -9 6 -4 9 6 12 4 8 -7 -4 -9 0 -15 8 -15 15 0 15 1 -12 91
-13 44 -31 74 -72 117 -57 62 -59 68 -14 45 33 -17 53 -39 82 -91 l22 -40 -6
35 c-10 56 -54 101 -148 150 -48 25 -95 53 -106 63 -26 24 -72 113 -107 205
-25 69 -37 82 -104 129 -2 2 4 13 15 25 l19 23 -24 -20 -24 -20 7 23 c4 12 5
22 2 22 -2 0 -8 -9 -11 -20z"/>
<path d="M4120 4420 c-150 -38 -267 -143 -301 -272 -19 -68 -1 -212 37 -306
17 -41 34 -73 39 -72 5 1 28 -37 52 -84 37 -75 41 -90 30 -107 -10 -17 -9 -23
13 -39 19 -15 21 -20 8 -20 -23 0 -32 -18 -18 -35 10 -12 10 -18 1 -29 -9 -11
-8 -26 5 -65 18 -58 31 -71 77 -80 l32 -7 1 -199 c1 -110 -1 -225 -5 -256 -6
-54 -7 -56 -29 -48 -20 8 -22 13 -15 46 4 21 8 54 8 73 0 28 -4 35 -20 35 -15
0 -22 -13 -36 -65 l-16 -65 -54 -7 c-78 -9 -109 -21 -166 -62 -28 -20 -53 -36
-57 -36 -20 0 3 33 66 97 69 69 71 74 55 90 -16 17 -22 13 -107 -72 -50 -49
-90 -95 -90 -101 0 -6 10 -19 21 -30 12 -10 30 -38 39 -60 25 -57 89 -93 172
-96 44 -2 62 -7 66 -18 13 -36 37 -33 52 6 5 13 26 32 47 43 52 28 78 51 97
89 14 28 16 66 14 297 l-3 265 25 0 c40 0 73 28 66 55 -5 20 -1 24 32 30 64
12 106 33 94 48 -7 8 -7 18 -2 27 6 9 3 18 -8 28 -13 10 -14 15 -4 18 6 3 12
14 12 24 0 10 4 21 10 25 5 3 7 12 3 21 -4 11 -9 12 -19 3 -11 -9 -14 -9 -14
0 0 6 11 16 25 21 20 8 25 16 25 45 0 37 20 82 89 200 73 124 96 197 96 305 0
83 -4 103 -28 154 -55 119 -164 187 -307 192 -41 2 -91 -1 -110 -6z m254 -64
c68 -33 127 -102 146 -170 8 -30 11 -78 8 -136 -5 -80 -10 -98 -47 -170 -23
-45 -57 -105 -76 -133 -19 -28 -45 -81 -56 -117 -12 -36 -22 -66 -23 -67 -1
-1 -13 -4 -28 -8 l-27 -7 2 103 2 104 36 37 c86 87 107 231 32 216 -25 -5 -70
-91 -85 -160 -12 -59 -25 -70 -49 -42 -10 13 -10 23 4 62 31 86 16 147 -34
140 -31 -4 -52 -64 -44 -122 8 -54 8 -60 -3 -64 -5 -1 -12 12 -16 31 -3 18
-19 53 -34 78 -59 91 -122 86 -122 -11 0 -60 31 -108 87 -135 l42 -20 2 -75
c2 -76 0 -132 -6 -138 -1 -2 -14 0 -29 4 -20 5 -26 12 -26 35 0 15 -34 95 -75
176 -82 163 -111 259 -100 332 17 112 75 190 180 243 87 45 101 48 196 45 70
-3 96 -8 143 -31z m-182 -430 c-2 -21 -8 -33 -11 -27 -9 14 -1 85 9 74 4 -4 5
-25 2 -47z m-143 15 c20 -28 45 -121 35 -130 -9 -9 -60 37 -78 70 -21 39 -16
89 9 89 7 0 23 -13 34 -29z m286 -46 c-19 -50 -53 -88 -40 -45 4 14 17 48 28
75 27 61 37 35 12 -30z m-149 -120 c9 -8 23 -15 32 -15 15 0 17 -13 17 -105
l0 -105 -50 0 -50 0 0 110 c0 88 3 113 15 120 19 12 19 13 36 -5z m-89 -271
c-3 -3 -12 -4 -19 -1 -8 3 -5 6 6 6 11 1 17 -2 13 -5z m76 -1 c-7 -2 -19 -2
-25 0 -7 3 -2 5 12 5 14 0 19 -2 13 -5z"/>
<path d="M1648 4253 c-21 -3 -35 -18 -59 -64 -40 -74 -115 -143 -181 -166 -27
-10 -54 -25 -59 -34 -4 -9 -18 -64 -29 -122 -21 -99 -24 -108 -67 -152 -58
-61 -83 -116 -83 -185 0 -70 26 -126 84 -185 44 -43 45 -47 39 -90 -5 -42 -9
-47 -67 -79 -68 -38 -239 -160 -301 -215 -248 -219 -388 -449 -414 -680 -17
-151 16 -302 89 -418 8 -12 12 -24 10 -26 -5 -5 -139 -16 -193 -17 l-28 0 3
-369 c2 -203 6 -372 9 -376 4 -3 40 -8 80 -10 41 -3 101 -7 134 -10 33 -2 107
-8 165 -11 58 -4 116 -8 130 -9 14 -1 35 -3 47 -4 15 -1 23 -10 28 -31 4 -17
11 -28 16 -25 5 4 6 0 3 -8 -4 -10 -34 -16 -112 -21 -170 -10 -222 -29 -207
-75 14 -46 261 -80 444 -62 117 12 151 25 151 56 0 32 -19 44 -96 60 -79 16
-110 44 -103 93 1 4 4 6 8 5 3 0 60 -4 126 -8 66 -3 136 -8 155 -10 19 -2 95
-7 168 -10 l132 -7 0 363 0 364 37 25 c95 65 214 213 267 334 68 154 89 346
52 476 -70 244 -284 432 -508 447 l-78 6 0 87 c0 80 2 88 26 111 22 20 34 23
78 21 71 -5 130 20 167 71 16 22 29 46 29 54 0 7 3 13 6 13 3 0 42 -36 87 -81
127 -125 259 -201 324 -184 26 6 114 92 164 159 l29 38 -20 25 c-11 14 -17 29
-14 34 3 5 -2 6 -10 3 -19 -7 -22 12 -3 20 7 3 6 5 -3 3 -8 -1 -30 9 -48 22
-27 18 -31 26 -21 37 10 12 9 13 -6 8 -10 -4 -20 -1 -25 6 -5 9 -21 -8 -51
-54 -24 -36 -48 -66 -53 -66 -9 0 -31 12 -155 88 l-73 45 45 23 c103 53 127
132 66 220 -16 23 -40 51 -55 61 l-26 19 16 54 c10 34 16 91 16 155 0 89 -3
107 -26 154 -35 70 -84 101 -167 106 -34 2 -74 1 -89 -2z m117 -208 c53 -40
75 -81 75 -142 0 -80 -4 -85 -53 -66 -48 17 -203 23 -285 9 l-53 -8 6 38 c8
46 43 110 77 140 76 70 165 81 233 29z m40 -369 c91 -38 55 -139 -55 -153 -31
-4 -40 -10 -40 -25 0 -57 -64 -96 -164 -100 -75 -2 -86 5 -86 59 l0 31 -62 -1
c-59 -2 -63 -1 -76 27 -13 25 -12 31 5 55 11 14 42 40 68 56 40 24 60 30 110
31 33 0 67 4 75 9 42 26 173 32 225 11z m-485 -655 c0 -59 0 -59 -42 -84 -104
-61 -207 -181 -246 -289 -30 -80 -45 -216 -33 -284 15 -81 69 -145 146 -174
28 -10 27 -8 -18 37 -82 84 -110 193 -82 320 21 95 59 166 123 225 57 54 140
104 151 92 11 -11 33 -977 23 -986 -8 -7 -113 -15 -327 -24 l-161 -7 -53 44
c-127 104 -187 297 -151 481 35 176 149 313 475 574 202 162 195 159 195 75z
m370 -128 c184 -62 257 -248 197 -503 -45 -190 -109 -317 -218 -434 l-66 -71
-82 -3 -81 -4 0 515 0 516 33 4 c51 7 167 -3 217 -20z m-60 -1459 l0 -416 -92
7 c-51 3 -322 19 -601 34 -279 16 -509 30 -511 32 -2 2 -6 163 -10 357 l-6
352 58 1 c31 0 264 11 517 23 253 13 502 24 553 25 l92 1 0 -416z"/>
<path d="M950 1740 c0 -5 7 -7 15 -4 8 4 15 8 15 10 0 2 -7 4 -15 4 -8 0 -15
-4 -15 -10z"/>
<path d="M715 1729 c-4 -6 -34 -22 -66 -36 -48 -21 -59 -30 -59 -49 0 -18 -6
-24 -20 -24 -48 0 -100 -46 -83 -72 3 -7 1 -8 -5 -4 -22 13 -12 -10 13 -34 35
-33 34 -82 -1 -107 -26 -19 -26 -20 -10 -51 13 -25 23 -32 45 -32 41 0 64 -30
56 -72 -6 -30 -3 -37 19 -52 25 -16 28 -15 66 4 39 20 40 20 40 1 0 -11 4 -22
8 -25 4 -2 4 30 0 72 -11 97 -11 463 -1 473 5 4 26 9 48 12 l40 4 -42 1 c-23
1 -45 -3 -48 -9z"/>
<path d="M964 1707 c3 -10 6 -21 6 -23 0 -2 30 -4 67 -4 80 0 80 9 -1 11 -40
1 -60 6 -67 18 -9 14 -10 14 -5 -2z"/>
<path d="M1418 1703 c7 -3 16 -2 19 1 4 3 -2 6 -13 5 -11 0 -14 -3 -6 -6z"/>
<path d="M1525 1700 c3 -5 8 -10 11 -10 2 0 4 5 4 10 0 6 -5 10 -11 10 -5 0
-7 -4 -4 -10z"/>
<path d="M1243 1693 c9 -2 25 -2 35 0 9 3 1 5 -18 5 -19 0 -27 -2 -17 -5z"/>
<path d="M1544 1410 c0 -140 2 -198 3 -127 2 70 2 184 0 255 -1 70 -3 12 -3
-128z"/>
<path d="M1119 1568 c0 -2 -20 -66 -43 -143 -24 -77 -41 -143 -39 -147 2 -5
17 -8 32 -8 26 0 28 4 69 140 23 76 42 144 42 150 0 8 -59 16 -61 8z"/>
<path d="M1220 1466 c0 -34 2 -36 56 -53 l56 -17 -56 -19 c-53 -18 -56 -20
-56 -53 l0 -34 48 19 c140 56 132 51 132 85 0 34 -1 34 -172 104 -4 2 -8 -12
-8 -32z"/>
<path d="M908 1457 c-58 -28 -67 -36 -68 -59 0 -25 8 -31 75 -63 42 -19 78
-35 81 -35 3 0 4 14 2 31 -3 27 -10 34 -47 49 l-45 17 47 18 c41 15 47 21 47
46 0 36 -8 36 -92 -4z"/>
<path d="M758 1163 c7 -3 16 -2 19 1 4 3 -2 6 -13 5 -11 0 -14 -3 -6 -6z"/>
<path d="M798 1163 c6 -2 18 -2 25 0 6 3 1 5 -13 5 -14 0 -19 -2 -12 -5z"/>
<path d="M1018 1153 c6 -2 18 -2 25 0 6 3 1 5 -13 5 -14 0 -19 -2 -12 -5z"/>
<path d="M1238 1143 c7 -3 16 -2 19 1 4 3 -2 6 -13 5 -11 0 -14 -3 -6 -6z"/>
<path d="M3367 4217 c-4 -10 -17 -17 -31 -17 -49 0 -42 -66 13 -117 35 -33 68
-123 46 -123 -20 0 -36 -61 -42 -155 -5 -88 -69 -307 -83 -285 -6 9 -30 4 -96
-20 -49 -17 -95 -33 -102 -35 -9 -3 -11 -29 -10 -94 2 -49 6 -87 11 -84 6 4
10 -40 11 -114 0 -13 3 -23 7 -23 4 0 10 -19 14 -42 4 -24 11 -50 16 -59 4 -9
10 -29 13 -45 7 -40 68 -94 105 -94 37 0 96 63 109 117 12 50 59 305 67 363 9
75 57 254 71 269 11 12 15 10 24 -15 38 -102 74 -185 81 -190 17 -10 9 34 -25
137 l-34 104 25 26 c13 15 24 33 23 40 -4 26 0 39 13 39 35 1 40 16 21 71 -20
61 -44 96 -44 65 0 -15 -6 -13 -35 13 -30 26 -39 29 -60 21 -19 -7 -27 -6 -30
3 -29 79 -33 100 -28 149 4 48 2 58 -19 83 -21 24 -26 26 -31 12z m67 -334 c4
-16 9 -37 12 -48 4 -17 2 -16 -15 5 -21 25 -28 70 -12 70 5 0 12 -12 15 -27z"/>
<path d="M2799 3883 c-13 -16 -12 -17 4 -4 16 13 21 21 13 21 -2 0 -10 -8 -17
-17z"/>
<path d="M2975 3840 c-3 -5 -1 -10 4 -10 6 0 11 5 11 10 0 6 -2 10 -4 10 -3 0
-8 -4 -11 -10z"/>
<path d="M3062 3790 c0 -14 2 -19 5 -12 2 6 2 18 0 25 -3 6 -5 1 -5 -13z"/>
<path d="M3052 3740 c0 -14 2 -19 5 -12 2 6 2 18 0 25 -3 6 -5 1 -5 -13z"/>
<path d="M2961 3724 c0 -11 3 -14 6 -6 3 7 2 16 -1 19 -3 4 -6 -2 -5 -13z"/>
<path d="M2530 3714 c0 -8 5 -12 10 -9 6 4 8 11 5 16 -9 14 -15 11 -15 -7z"/>
<path d="M2746 3673 c-6 -14 -5 -15 5 -6 7 7 10 15 7 18 -3 3 -9 -2 -12 -12z"/>
<path d="M2343 3665 c0 -8 4 -12 9 -9 5 3 6 10 3 15 -9 13 -12 11 -12 -6z"/>
<path d="M2431 3644 c0 -11 3 -14 6 -6 3 7 2 16 -1 19 -3 4 -6 -2 -5 -13z"/>
<path d="M3032 3630 c0 -14 2 -19 5 -12 2 6 2 18 0 25 -3 6 -5 1 -5 -13z"/>
<path d="M2941 3574 c0 -11 3 -14 6 -6 3 7 2 16 -1 19 -3 4 -6 -2 -5 -13z"/>
<path d="M2670 3531 c0 -6 4 -13 10 -16 6 -3 7 1 4 9 -7 18 -14 21 -14 7z"/>
<path d="M2965 3511 c-6 -20 3 -51 15 -51 5 0 16 7 24 16 11 10 16 11 16 3 0
-7 3 -9 6 -6 10 10 -24 57 -41 57 -7 0 -16 -8 -20 -19z"/>
<path d="M2427 3504 c-13 -13 -7 -52 8 -58 18 -7 47 21 43 43 -3 17 -39 27
-51 15z"/>
<path d="M2521 3494 c0 -11 3 -14 6 -6 3 7 2 16 -1 19 -3 4 -6 -2 -5 -13z"/>
<path d="M2565 3489 c-26 -6 -23 -7 18 -8 26 0 47 1 47 3 0 9 -37 12 -65 5z"/>
<path d="M2660 3490 c0 -5 5 -10 11 -10 5 0 7 5 4 10 -3 6 -8 10 -11 10 -2 0
-4 -4 -4 -10z"/>
<path d="M2773 3483 c9 -2 25 -2 35 0 9 3 1 5 -18 5 -19 0 -27 -2 -17 -5z"/>
<path d="M2381 3444 c0 -11 3 -14 6 -6 3 7 2 16 -1 19 -3 4 -6 -2 -5 -13z"/>
<path d="M3020 3445 c0 -8 2 -15 4 -15 2 0 6 7 10 15 3 8 1 15 -4 15 -6 0 -10
-7 -10 -15z"/>
<path d="M2553 3413 c-50 -4 -53 -5 -58 -37 -4 -18 -2 -50 4 -72 19 -66 85
-177 121 -201 34 -24 104 -31 115 -13 4 6 -8 10 -28 10 -19 0 -49 10 -68 23
-43 29 -117 157 -125 218 l-6 46 122 6 c68 4 153 7 189 8 36 0 75 4 86 9 20 8
-242 10 -352 3z"/>
<path d="M3025 3399 c-4 -6 -5 -12 -2 -15 2 -3 7 2 10 11 7 17 1 20 -8 4z"/>
<path d="M2990 3324 c-42 -29 -50 -44 -43 -90 l6 -44 -58 0 c-53 0 -60 -3 -97
-39 -34 -35 -39 -45 -36 -78 2 -31 8 -39 30 -47 36 -13 99 7 141 43 17 15 48
31 68 35 21 4 43 14 50 22 16 19 22 54 10 54 -9 0 -19 44 -25 115 -4 46 -12
51 -46 29z"/>
<path d="M3090 3064 c0 -6 7 -19 16 -30 14 -18 14 -18 3 6 -14 31 -19 36 -19
24z"/>
<path d="M2687 2949 c7 -7 15 -10 18 -7 3 3 -2 9 -12 12 -14 6 -15 5 -6 -5z"/>
<path d="M2760 2950 c-11 -7 -5 -8 20 -4 43 8 51 14 19 14 -13 0 -31 -5 -39
-10z"/>
<path d="M4183 2913 c-27 -10 -11 -40 57 -108 l70 -70 -71 -69 c-68 -68 -84
-103 -51 -114 14 -4 192 165 192 183 0 10 -49 60 -145 146 -22 20 -46 34 -52
32z"/>
<path d="M3000 2630 c0 -47 94 -209 173 -298 26 -29 47 -58 47 -65 0 -7 7 -91
15 -187 8 -96 24 -299 36 -450 13 -171 27 -285 35 -302 28 -55 46 -289 24
-303 -6 -4 -62 -9 -125 -12 -63 -3 -115 -10 -115 -14 0 -13 164 -11 215 2 25
6 50 18 57 27 7 9 9 13 3 10 -6 -4 -9 29 -7 93 3 79 0 113 -17 168 -13 41 -25
122 -30 202 -28 383 -43 559 -61 704 -11 88 -24 220 -30 294 -5 74 -12 137
-16 140 -3 3 -4 -67 -2 -156 1 -88 0 -159 -4 -157 -16 10 -139 203 -163 257
-25 55 -35 68 -35 47z"/>
<path d="M2620 2310 c0 -28 96 -44 180 -31 96 16 90 26 -14 23 -51 -2 -109 1
-129 6 -21 6 -37 6 -37 2z"/>
<path d="M4620 1600 c-25 -4 -66 -18 -92 -30 -58 -27 -160 -133 -207 -215
l-35 -60 -55 59 c-107 112 -197 141 -291 94 -51 -26 -70 -56 -70 -114 0 -33
-6 -46 -36 -75 -72 -68 -92 -162 -54 -246 23 -52 40 -55 40 -8 0 56 20 132 43
161 l21 27 22 -52 c13 -28 28 -51 35 -51 11 0 10 18 -7 84 -19 75 125 -16 175
-111 6 -12 11 -46 11 -76 0 -86 4 -86 187 -28 87 27 184 58 216 67 38 12 57
23 57 33 0 9 -14 41 -31 71 -42 76 -47 138 -19 231 39 131 124 185 223 141 48
-21 100 -72 118 -114 14 -34 29 -36 29 -5 -1 58 -78 170 -140 201 -36 19 -88
25 -140 16z"/>
<path d="M3117 1370 c-72 -136 -77 -180 -7 -61 49 84 82 160 78 178 -2 7 -34
-45 -71 -117z"/>
<path d="M2307 1424 c-21 -24 -68 -65 -104 -91 -91 -67 -124 -95 -98 -86 65
22 190 122 226 179 31 50 20 49 -24 -2z"/>
<path d="M3148 1265 c-46 -78 -55 -114 -17 -65 38 48 71 110 67 127 -2 11 -20
-10 -50 -62z"/>
<path d="M2215 1235 c-33 -30 -55 -55 -50 -55 14 0 125 88 125 100 0 18 -15 9
-75 -45z"/>
<path d="M1960 1122 c0 -13 89 -61 153 -83 35 -12 97 -23 142 -25 l80 -4 -69
15 c-87 18 -188 51 -248 81 -51 26 -58 28 -58 16z"/>
<path d="M1916 1031 c-2 -3 -16 -44 -31 -91 -37 -116 -65 -154 -121 -170 -24
-7 -61 -10 -83 -6 -45 7 -71 0 -71 -20 0 -10 -15 -14 -59 -14 -57 0 -61 -2
-110 -48 -62 -57 -75 -102 -43 -142 l20 -25 335 -3 c359 -3 348 -4 362 49 5
21 1 31 -20 47 -26 21 -27 24 -17 69 6 27 11 66 11 87 0 26 12 58 36 98 19 33
35 61 35 63 0 2 -26 13 -57 25 -32 12 -86 36 -121 55 -34 18 -64 30 -66 26z
m-278 -399 c-4 -30 -52 -49 -75 -30 -23 18 -12 61 17 69 37 9 62 -7 58 -39z"/>
<path d="M1572 652 c-13 -9 -6 -42 8 -42 22 0 40 14 40 31 0 20 -25 25 -48 11z"/>
<path d="M3167 800 c38 -159 37 -147 14 -155 -11 -3 -32 -20 -45 -36 -24 -28
-25 -32 -11 -58 8 -16 22 -32 32 -35 36 -14 641 10 661 26 18 15 16 87 -3 94
-8 4 -15 14 -15 23 0 10 -11 28 -25 41 -14 13 -25 29 -25 36 0 23 -30 31 -76
21 -39 -9 -47 -8 -67 11 -27 26 -51 28 -91 7 -15 -8 -39 -15 -51 -15 -34 0
-65 44 -65 94 l0 42 -128 -1 -128 0 23 -95z m496 -128 c15 -16 15 -20 -6 -44
-17 -22 -28 -26 -50 -21 -34 7 -41 21 -28 56 8 21 17 27 39 27 16 0 36 -8 45
-18z"/>
<path d="M3597 659 c-3 -13 -4 -26 -1 -31 10 -16 43 -8 49 13 8 24 7 24 -21
33 -17 5 -23 2 -27 -15z"/>
</g>
</svg>
